<?xml version="1.0" encoding="UTF-8" standalone="no"?>
<!-- Created with Inkscape (http://www.inkscape.org/) -->

<svg
   xmlns:dc="http://purl.org/dc/elements/1.1/"
   xmlns:cc="http://creativecommons.org/ns#"
   xmlns:rdf="http://www.w3.org/1999/02/22-rdf-syntax-ns#"
   xmlns:svg="http://www.w3.org/2000/svg"
   xmlns="http://www.w3.org/2000/svg"
   xmlns:sodipodi="http://sodipodi.sourceforge.net/DTD/sodipodi-0.dtd"
   xmlns:inkscape="http://www.inkscape.org/namespaces/inkscape"
   width="210mm"
   height="297mm"
   viewBox="0 0 210 297"
   version="1.1"
   id="svg8"
   inkscape:version="0.92.2 (5c3e80d, 2017-08-06)"
   sodipodi:docname="logo-title.svg">
  <defs
     id="defs2" />
  <sodipodi:namedview
     id="base"
     pagecolor="#ffffff"
     bordercolor="#666666"
     borderopacity="1.0"
     inkscape:pageopacity="0.0"
     inkscape:pageshadow="2"
     inkscape:zoom="2.8"
     inkscape:cx="315.62141"
     inkscape:cy="1002.429"
     inkscape:document-units="mm"
     inkscape:current-layer="layer1"
     showgrid="false"
     inkscape:window-width="1600"
     inkscape:window-height="838"
     inkscape:window-x="-8"
     inkscape:window-y="-8"
     inkscape:window-maximized="1" />
  <metadata
     id="metadata5">
    <rdf:RDF>
      <cc:Work
         rdf:about="">
        <dc:format>image/svg+xml</dc:format>
        <dc:type
           rdf:resource="http://purl.org/dc/dcmitype/StillImage" />
        <dc:title></dc:title>
      </cc:Work>
    </rdf:RDF>
  </metadata>
  <g
     inkscape:label="Layer 1"
     inkscape:groupmode="layer"
     id="layer1">
    <path
       style="font-style:normal;font-variant:normal;font-weight:normal;font-stretch:normal;font-size:10.58333302px;line-height:1.25;font-family:Immortal;-inkscape-font-specification:'Immortal, Normal';font-variant-ligatures:normal;font-variant-caps:normal;font-variant-numeric:normal;font-feature-settings:normal;text-align:center;letter-spacing:0px;word-spacing:0px;writing-mode:lr-tb;text-anchor:middle;fill:#f3dd42;fill-opacity:1;stroke:#af5017;stroke-width:2.1354331;stroke-linecap:round;stroke-linejoin:round;stroke-opacity:1;paint-order:markers stroke fill;stroke-miterlimit:4;stroke-dasharray:none"
       d="M 353.52734 38.017578 C 350.91401 38.017578 348.51479 38.309818 346.32812 38.896484 C 342.80813 39.776484 339.94185 41.297031 337.72852 43.457031 C 335.16852 45.937031 333.88867 48.844401 333.88867 52.177734 C 333.88867 55.884401 335.38052 59.057266 338.36719 61.697266 C 341.67385 64.683932 346.38161 66.177734 352.48828 66.177734 C 354.32828 66.177734 356.03409 66.109896 357.60742 65.976562 C 359.20742 65.843229 360.71557 65.64362 362.12891 65.376953 C 362.90224 65.24362 363.62044 65.109896 364.28711 64.976562 C 364.98044 64.816563 365.54208 64.629349 365.96875 64.416016 L 359.52734 64.216797 L 363.28711 63.736328 L 364.80859 63.617188 C 365.18193 63.563854 365.42068 63.469271 365.52734 63.335938 C 365.63401 63.175938 365.63401 63.044167 365.52734 62.9375 C 365.31401 62.6175 365.20703 61.483776 365.20703 59.537109 L 365.20703 56.177734 C 365.2337 54.924401 365.35503 54.257734 365.56836 54.177734 C 365.75503 54.124401 366.28797 54.044167 367.16797 53.9375 L 367.44727 52.255859 C 366.0606 52.335859 363.5544 51.924245 359.92773 51.017578 C 356.06107 50.084245 353.23393 49.617187 351.44727 49.617188 C 350.5406 49.617188 349.68867 49.724167 348.88867 49.9375 L 348.76758 52.857422 C 349.54091 52.884089 350.22193 52.81625 350.80859 52.65625 C 352.32859 52.282917 353.50146 52.003073 354.32812 51.816406 C 355.15479 51.62974 355.66099 51.537109 355.84766 51.537109 C 355.95432 51.537109 356.03456 51.563854 356.08789 51.617188 L 355.28711 52.097656 C 354.75378 52.39099 354.48828 52.602995 354.48828 52.736328 C 354.48828 52.842995 354.58091 52.910833 354.76758 52.9375 C 355.56758 53.044167 356.35557 53.136797 357.12891 53.216797 C 357.90224 53.296797 358.68828 53.362682 359.48828 53.416016 C 359.86161 53.656016 360.1682 54.256797 360.4082 55.216797 C 360.46154 55.51013 360.51503 55.950443 360.56836 56.537109 C 360.62169 57.097109 360.64844 57.776172 360.64844 58.576172 C 360.64844 60.789505 360.54146 62.030208 360.32812 62.296875 C 360.03479 62.590208 359.60883 62.843307 359.04883 63.056641 C 358.48883 63.269974 357.78107 63.469583 356.92773 63.65625 C 355.54107 63.949583 354.31471 64.097656 353.24805 64.097656 C 351.08805 64.097656 349.08805 63.710833 347.24805 62.9375 C 344.95471 62.004167 342.99385 60.52276 341.36719 58.496094 C 339.68719 56.336094 338.84766 54.070599 338.84766 51.697266 C 338.84766 49.857266 339.40734 48.017734 340.52734 46.177734 C 340.63401 45.937734 341.42201 45.443932 342.88867 44.697266 C 344.32867 43.977266 345.14146 43.444323 345.32812 43.097656 C 345.99479 42.137656 347.04828 41.403151 348.48828 40.896484 C 349.71495 40.416484 350.99479 40.177734 352.32812 40.177734 C 354.46146 40.177734 356.35448 40.511068 358.00781 41.177734 C 358.51448 41.337734 359.07417 41.710208 359.6875 42.296875 C 360.22083 42.750208 360.70224 42.976563 361.12891 42.976562 C 361.28891 42.976562 361.50091 42.937422 361.76758 42.857422 C 362.06091 42.777422 362.27487 42.736328 362.4082 42.736328 C 362.43487 42.736328 362.48836 42.777422 362.56836 42.857422 C 362.67503 42.937422 362.76766 43.017656 362.84766 43.097656 C 362.95432 43.177656 363.04891 43.255938 363.12891 43.335938 C 363.20891 43.415937 363.26044 43.457031 363.28711 43.457031 C 363.82044 43.457031 364.08789 43.177187 364.08789 42.617188 C 364.08789 42.563854 364.0344 42.469271 363.92773 42.335938 C 363.84773 42.202604 363.80859 42.109974 363.80859 42.056641 C 363.67526 41.443307 363.56828 40.92276 363.48828 40.496094 C 363.43495 40.069427 363.4082 39.723698 363.4082 39.457031 C 363.4082 38.603698 363.12836 38.177734 362.56836 38.177734 C 362.30169 38.177734 361.74201 38.469974 360.88867 39.056641 L 359.76758 38.736328 C 359.63424 38.682995 359.46138 38.643854 359.24805 38.617188 C 359.03471 38.563854 358.78161 38.510365 358.48828 38.457031 C 357.58161 38.323698 356.71534 38.216719 355.88867 38.136719 C 355.08867 38.056719 354.30068 38.017578 353.52734 38.017578 z M 278.90234 38.177734 C 277.22234 38.311068 275.39521 38.403698 273.42188 38.457031 C 271.44854 38.483698 269.28807 38.496094 266.94141 38.496094 L 265.98242 38.496094 C 265.58242 38.496094 265.08862 38.483698 264.50195 38.457031 C 264.12862 38.430365 263.7418 38.416016 263.3418 38.416016 L 262.14258 38.416016 L 258.3418 38.296875 L 257.54102 38.296875 L 255.46094 38.335938 L 255.46094 39.9375 C 256.34094 40.0175 256.88823 40.16362 257.10156 40.376953 C 257.12823 40.48362 257.15497 40.57625 257.18164 40.65625 C 257.23497 40.73625 257.28846 40.843229 257.3418 40.976562 C 257.71513 41.829896 257.90234 45.403932 257.90234 51.697266 C 257.90234 54.603932 257.86125 56.990755 257.78125 58.857422 C 257.70125 60.697422 257.56753 62.00401 257.38086 62.777344 C 257.27419 63.337344 256.87497 63.736563 256.18164 63.976562 C 256.04831 64.003229 255.83435 64.044323 255.54102 64.097656 C 255.24768 64.15099 254.87521 64.202526 254.42188 64.255859 L 254.30078 65.9375 C 255.36745 65.884167 256.32831 65.843073 257.18164 65.816406 C 258.03497 65.78974 258.79427 65.777344 259.46094 65.777344 L 261.94141 65.777344 L 266.26172 65.896484 L 266.26172 64.136719 C 265.00839 63.896719 264.35411 63.723854 264.30078 63.617188 C 263.71411 63.430521 263.3149 63.230911 263.10156 63.017578 C 262.72823 62.670911 262.54102 61.403463 262.54102 59.216797 C 262.54102 57.216797 262.47513 55.576875 262.3418 54.296875 C 262.23513 52.990208 262.03552 52.043698 261.74219 51.457031 C 262.08885 51.457031 262.52917 51.629896 263.0625 51.976562 C 263.27583 52.163229 263.43435 52.309349 263.54102 52.416016 C 263.67435 52.496016 263.74219 52.57625 263.74219 52.65625 C 267.52885 52.65625 269.82109 52.896953 270.62109 53.376953 C 270.94109 52.60362 271.30117 52.216797 271.70117 52.216797 C 271.72784 52.243464 271.74219 53.017109 271.74219 54.537109 L 273.42188 55.457031 C 273.44854 55.057031 273.34156 54.390365 273.10156 53.457031 C 272.86156 52.630365 272.74219 52.017187 272.74219 51.617188 C 272.74219 51.403854 272.76893 51.150755 272.82227 50.857422 C 272.90227 50.537422 273.00924 50.177344 273.14258 49.777344 C 273.38258 49.00401 273.47521 48.376484 273.42188 47.896484 C 273.26188 47.949818 273.00878 48.083542 272.66211 48.296875 C 272.31544 48.483542 272.0356 48.576172 271.82227 48.576172 C 271.82227 49.109505 271.74203 49.496328 271.58203 49.736328 L 271.22266 50.056641 C 270.92932 50.509974 268.84909 50.736328 264.98242 50.736328 C 264.95576 50.736328 264.88792 50.723932 264.78125 50.697266 C 264.32792 50.670599 263.95544 50.65625 263.66211 50.65625 C 263.36878 50.65625 263.12807 50.629505 262.94141 50.576172 L 262.58203 50.537109 L 262.58203 47.777344 C 262.58203 46.150677 262.59443 44.749505 262.62109 43.576172 C 262.64776 42.402839 262.70125 41.429583 262.78125 40.65625 C 263.26125 40.57625 263.92792 40.52276 264.78125 40.496094 C 265.63458 40.469427 266.68807 40.457031 267.94141 40.457031 C 272.79474 40.457031 275.5149 40.90974 276.10156 41.816406 C 276.3949 42.26974 276.59451 43.150365 276.70117 44.457031 L 277.46094 42.335938 C 277.46094 42.229271 277.47529 42.163385 277.50195 42.136719 C 277.52862 42.136719 277.70148 42.430911 278.02148 43.017578 C 278.39482 43.550911 278.59443 43.816406 278.62109 43.816406 C 278.64776 43.816406 278.66211 43.750521 278.66211 43.617188 C 278.68878 42.497188 278.71552 41.482839 278.74219 40.576172 C 278.76885 39.669505 278.82234 38.871068 278.90234 38.177734 z M 421.10742 40.736328 C 419.64076 41.589661 417.26828 42.589661 413.98828 43.736328 L 414.14844 45.296875 C 414.6551 45.163542 415.06867 45.083307 415.38867 45.056641 C 415.73534 45.003307 416.01518 44.976562 416.22852 44.976562 C 416.52185 44.976562 416.7482 45.003307 416.9082 45.056641 C 417.04154 45.483307 417.14852 45.882526 417.22852 46.255859 C 417.30852 46.602526 417.36201 46.950208 417.38867 47.296875 L 417.38867 50.056641 C 417.33534 49.949974 417.30859 49.803854 417.30859 49.617188 C 415.36193 49.243854 413.90727 49.056641 412.94727 49.056641 C 412.73393 49.056641 412.42734 49.097734 412.02734 49.177734 C 411.65401 49.257734 411.16216 49.36276 410.54883 49.496094 C 407.32216 50.216094 404.84076 51.64401 403.10742 53.777344 C 402.01409 55.057344 401.46875 56.682917 401.46875 58.65625 C 401.46875 60.89625 402.30828 62.6575 403.98828 63.9375 C 405.56161 65.190833 407.46703 65.816406 409.70703 65.816406 C 413.68036 65.816406 416.06719 64.363698 416.86719 61.457031 C 417.02719 65.137031 417.4551 66.976562 418.14844 66.976562 C 418.2551 66.976562 418.40122 67.017656 418.58789 67.097656 C 418.80122 67.204323 418.97409 67.255859 419.10742 67.255859 C 419.77409 67.255859 420.89542 67.029505 422.46875 66.576172 L 422.46875 64.736328 C 422.17542 64.869661 421.89557 64.9375 421.62891 64.9375 C 421.33557 64.9375 421.25534 64.816172 421.38867 64.576172 C 421.46867 64.336172 421.49542 64.204401 421.46875 64.177734 C 421.33542 63.377734 421.22844 62.53625 421.14844 61.65625 C 421.06844 60.749583 421.05409 59.803073 421.10742 58.816406 L 421.26758 48.576172 C 421.48091 46.816172 421.64138 45.630911 421.74805 45.017578 C 421.82805 44.297578 421.92068 43.616562 422.02734 42.976562 C 422.13401 42.336563 422.25534 41.737734 422.38867 41.177734 L 421.10742 40.736328 z M 398.47461 40.857422 L 395.39453 43.255859 C 395.68786 42.722526 395.83398 42.323307 395.83398 42.056641 C 395.83398 41.789974 395.67352 41.65625 395.35352 41.65625 C 395.27352 41.65625 395.11305 41.697344 394.87305 41.777344 C 394.63305 41.857344 394.28732 41.964323 393.83398 42.097656 L 391.0332 42.976562 L 391.0332 44.537109 L 390.91406 45.216797 C 390.94073 45.19013 391.08685 45.177734 391.35352 45.177734 C 392.04685 45.177734 392.50151 45.28276 392.71484 45.496094 C 393.19484 46.08276 393.36771 48.04362 393.23438 51.376953 L 392.83398 58.65625 C 392.78065 59.402917 392.72716 60.030443 392.67383 60.537109 C 392.64716 61.043776 392.60802 61.457344 392.55469 61.777344 C 392.39469 62.76401 391.98112 63.430677 391.31445 63.777344 C 390.86112 64.017344 390.06073 64.216953 388.91406 64.376953 L 388.91406 66.017578 C 390.86073 65.857578 392.58089 65.777344 394.07422 65.777344 C 394.36755 65.777344 395.03422 65.78974 396.07422 65.816406 C 397.11422 65.86974 398.55453 65.964323 400.39453 66.097656 L 400.39453 64.335938 C 398.55453 64.175938 397.55453 63.869349 397.39453 63.416016 C 397.15453 62.776016 397.0332 61.082604 397.0332 58.335938 C 397.0332 56.362604 397.0743 54.537422 397.1543 52.857422 C 397.18096 52.510755 397.19336 52.204167 397.19336 51.9375 L 397.19336 51.177734 C 397.19336 50.804401 397.2201 50.483464 397.27344 50.216797 C 397.40677 47.95013 397.56724 46.04276 397.75391 44.496094 C 397.94057 42.949427 398.18128 41.737422 398.47461 40.857422 z M 305.57227 48.017578 C 303.57227 50.337578 301.10521 51.496094 298.17188 51.496094 L 299.21094 53.777344 C 299.2376 53.777344 299.29109 53.73625 299.37109 53.65625 C 299.47776 53.549583 299.57234 53.442604 299.65234 53.335938 L 299.93164 53.056641 C 300.01164 52.949974 300.07753 52.896484 300.13086 52.896484 C 300.74419 52.896484 301.13102 53.056953 301.29102 53.376953 C 301.47768 53.776953 301.57227 54.816094 301.57227 56.496094 C 301.57227 57.589427 301.55792 58.523542 301.53125 59.296875 C 301.53125 60.043542 301.51885 60.644323 301.49219 61.097656 C 301.33219 62.75099 300.98451 63.6975 300.45117 63.9375 C 300.31784 64.0175 300.07909 64.097734 299.73242 64.177734 C 299.41242 64.231068 298.98451 64.296953 298.45117 64.376953 L 298.37109 65.9375 L 307.01172 65.697266 C 308.05172 65.670599 308.78427 65.65625 309.21094 65.65625 L 309.53125 65.65625 L 309.69141 63.777344 L 307.57227 63.777344 L 306.89258 63.857422 C 306.43924 63.884089 306.10591 63.81625 305.89258 63.65625 C 305.51924 62.93625 305.37117 61.364167 305.45117 58.9375 L 305.65234 55.296875 L 305.69141 54.177734 C 305.71807 53.937734 305.91768 53.697031 306.29102 53.457031 C 307.35768 52.657031 308.37203 52.255859 309.33203 52.255859 C 309.38536 52.229193 310.01094 51.722995 311.21094 50.736328 L 311.25195 50.777344 C 310.69195 51.68401 310.26599 52.377422 309.97266 52.857422 C 309.67932 53.337422 309.53125 53.64401 309.53125 53.777344 C 309.74458 53.72401 309.97094 53.656172 310.21094 53.576172 C 310.4776 53.469505 310.7718 53.31099 311.0918 53.097656 C 311.22513 52.964323 311.39799 52.803854 311.61133 52.617188 C 311.85133 52.430521 312.11878 52.204167 312.41211 51.9375 C 312.65211 51.830833 313.02458 51.762995 313.53125 51.736328 C 313.90458 51.682995 314.0918 51.522526 314.0918 51.255859 C 314.0918 50.669193 313.90458 50.18974 313.53125 49.816406 C 313.15792 49.576406 312.82458 49.389193 312.53125 49.255859 C 312.26458 49.095859 312.05258 48.976484 311.89258 48.896484 L 311.41211 48.65625 C 311.19878 48.789583 310.95807 48.937656 310.69141 49.097656 C 310.45141 49.23099 310.18591 49.36276 309.89258 49.496094 L 308.69141 50.056641 C 308.37141 50.189974 308.14505 50.282604 308.01172 50.335938 C 307.53172 50.575937 307.09141 50.789896 306.69141 50.976562 C 306.31807 51.163229 305.98474 51.323698 305.69141 51.457031 C 305.69141 50.363698 305.65227 49.217578 305.57227 48.017578 z M 286.88086 49.097656 C 285.36086 49.097656 283.94729 49.309661 282.64062 49.736328 C 280.66729 50.296328 279.08086 51.242839 277.88086 52.576172 C 276.54753 54.042838 275.88086 55.73625 275.88086 57.65625 C 275.88086 59.65625 276.46729 61.283776 277.64062 62.537109 C 279.80062 64.910443 282.80063 66.097656 286.64062 66.097656 C 290.80062 66.097656 293.85411 64.642995 295.80078 61.736328 C 296.68078 60.429661 297.12109 58.989349 297.12109 57.416016 C 297.12109 54.882682 296.00172 52.829193 293.76172 51.255859 C 291.78839 49.815859 289.49419 49.097656 286.88086 49.097656 z M 379.22461 49.097656 C 377.70461 49.097656 376.29104 49.309661 374.98438 49.736328 C 373.01104 50.296328 371.42461 51.242839 370.22461 52.576172 C 368.89128 54.042838 368.22461 55.73625 368.22461 57.65625 C 368.22461 59.65625 368.81104 61.283776 369.98438 62.537109 C 372.14437 64.910443 375.14438 66.097656 378.98438 66.097656 C 383.14437 66.097656 386.19786 64.642995 388.14453 61.736328 C 389.02453 60.429661 389.46484 58.989349 389.46484 57.416016 C 389.46484 54.882682 388.34547 52.829193 386.10547 51.255859 C 384.13214 49.815859 381.83794 49.097656 379.22461 49.097656 z M 285.60156 51.177734 C 286.1349 51.177734 286.61435 51.350599 287.04102 51.697266 C 287.46768 52.017266 287.89365 52.523464 288.32031 53.216797 C 288.82698 54.07013 289.28164 54.749193 289.68164 55.255859 C 290.08164 55.762526 290.46846 56.110208 290.8418 56.296875 C 291.21513 56.510208 291.50737 56.683073 291.7207 56.816406 C 291.93404 56.923073 292.08016 57.003307 292.16016 57.056641 C 292.34682 57.243307 292.48055 57.430521 292.56055 57.617188 C 292.66721 57.803854 292.7207 58.042604 292.7207 58.335938 C 292.7207 60.095937 292.20016 61.509505 291.16016 62.576172 C 290.12016 63.616172 288.69419 64.136719 286.88086 64.136719 C 284.90753 64.136719 283.2676 63.350677 281.96094 61.777344 C 280.7876 60.36401 280.20117 58.617109 280.20117 56.537109 C 280.20117 54.857109 280.69497 53.550521 281.68164 52.617188 C 282.66831 51.657188 283.9749 51.177734 285.60156 51.177734 z M 377.94531 51.177734 C 378.47865 51.177734 378.9581 51.350599 379.38477 51.697266 C 379.81143 52.017266 380.2374 52.523464 380.66406 53.216797 C 381.17073 54.07013 381.62539 54.749193 382.02539 55.255859 C 382.42539 55.762526 382.81221 56.110208 383.18555 56.296875 C 383.55888 56.510208 383.85112 56.683073 384.06445 56.816406 C 384.27779 56.923073 384.42391 57.003307 384.50391 57.056641 C 384.69057 57.243307 384.8243 57.430521 384.9043 57.617188 C 385.01096 57.803854 385.06445 58.042604 385.06445 58.335938 C 385.06445 60.095937 384.54391 61.509505 383.50391 62.576172 C 382.46391 63.616172 381.03794 64.136719 379.22461 64.136719 C 377.25128 64.136719 375.61135 63.350677 374.30469 61.777344 C 373.13135 60.36401 372.54492 58.617109 372.54492 56.537109 C 372.54492 54.857109 373.03872 53.550521 374.02539 52.617188 C 375.01206 51.657188 376.31865 51.177734 377.94531 51.177734 z M 411.02734 51.617188 C 411.13401 51.617188 411.58867 51.656328 412.38867 51.736328 C 413.32201 51.869661 414.12044 52.003385 414.78711 52.136719 C 415.45378 52.270052 416.00107 52.442917 416.42773 52.65625 C 416.82773 52.81625 417.02734 52.949974 417.02734 53.056641 L 416.9082 56.177734 C 416.88154 56.844401 416.85479 57.443229 416.82812 57.976562 C 416.82812 58.509896 416.84052 58.976953 416.86719 59.376953 C 415.93385 61.830286 414.41526 63.056641 412.30859 63.056641 C 410.22859 63.056641 408.54758 62.455859 407.26758 61.255859 C 405.96091 60.029193 405.30859 58.389271 405.30859 56.335938 C 405.30859 54.949271 405.93417 53.803151 407.1875 52.896484 C 407.72083 52.443151 408.30727 52.124167 408.94727 51.9375 C 409.61393 51.724167 410.30734 51.617188 411.02734 51.617188 z M 336.02148 78.111328 C 335.60141 78.107289 335.158 78.19337 334.68945 78.371094 C 331.8028 79.448205 330.31664 80.998468 330.23047 83.023438 C 330.10122 84.617562 330.84332 85.996876 332.45898 87.160156 C 331.38187 87.741796 330.36973 88.452822 329.42188 89.292969 C 328.1078 90.434707 327.40843 91.953894 327.32227 93.849609 C 327.30072 94.366623 327.32209 94.883377 327.38672 95.400391 C 327.47289 95.895862 327.61276 96.391248 327.80664 96.886719 C 328.73296 99.234821 330.6601 100.42957 333.58984 100.47266 C 336.69192 100.51574 339.31068 99.32099 341.44336 96.886719 C 342.62818 99.170194 343.94144 100.3125 345.38477 100.3125 C 345.40631 100.3125 345.41797 100.29113 345.41797 100.24805 C 345.41797 100.18342 345.39465 100.07462 345.35156 99.923828 C 345.33002 99.773033 345.32031 99.666189 345.32031 99.601562 C 345.32031 99.558478 345.33002 99.525448 345.35156 99.503906 C 345.43773 99.503906 345.5679 99.546644 345.74023 99.632812 C 345.93411 99.697439 346.08565 99.730469 346.19336 99.730469 C 346.40878 99.730469 346.52729 99.654702 346.54883 99.503906 L 347.12891 98.341797 C 345.87946 98.320255 344.7391 96.898203 343.70508 94.076172 L 343.80078 93.947266 C 343.88695 93.753386 344.23276 93.234678 344.83594 92.394531 C 345.20216 91.89906 345.39643 91.522179 345.41797 91.263672 L 345.64258 88.9375 C 345.7072 88.657451 345.7519 88.517578 345.77344 88.517578 C 345.81652 88.517578 345.902 88.700188 346.03125 89.066406 C 346.20359 89.432624 346.30072 89.617188 346.32227 89.617188 C 346.40843 89.617187 346.54831 89.292751 346.74219 88.646484 C 346.87144 88.258724 346.99965 88.033377 347.12891 87.96875 C 348.11985 87.667159 348.89693 87.494256 349.45703 87.451172 C 349.34932 87.300376 349.29492 87.117766 349.29492 86.902344 C 349.29492 86.816175 349.23082 86.633565 349.10156 86.353516 C 348.97231 86.073467 348.90625 85.867535 348.90625 85.738281 C 348.90625 85.673655 348.91791 85.630917 348.93945 85.609375 C 348.76712 85.674002 348.56314 85.792506 348.32617 85.964844 C 348.08921 86.137182 347.89494 86.222656 347.74414 86.222656 C 346.0423 86.222656 344.73876 85.803037 343.83398 84.962891 L 343.08984 86.320312 C 343.39143 86.471108 343.66147 86.696456 343.89844 86.998047 C 343.96306 87.084216 344.03883 87.214381 344.125 87.386719 C 344.21117 87.537514 344.31801 87.731786 344.44727 87.96875 C 344.2103 88.93815 344.08209 89.487934 344.06055 89.617188 C 343.97438 89.983405 343.85587 90.263151 343.70508 90.457031 C 343.57582 90.693996 343.45732 90.897975 343.34961 91.070312 C 343.26344 91.24265 343.17601 91.394184 343.08984 91.523438 L 340.57031 95.142578 C 339.0839 97.016752 337.37044 97.920095 335.43164 97.855469 C 334.91463 97.855469 334.26966 97.758333 333.49414 97.564453 C 331.55534 96.982813 330.58594 95.518024 330.58594 93.169922 C 330.8229 93.665393 331.04825 93.914063 331.26367 93.914062 L 331.26367 93.880859 L 331.19922 92.007812 C 331.15613 91.146124 331.25327 90.596339 331.49023 90.359375 C 331.92108 89.885446 332.23385 89.529933 332.42773 89.292969 C 332.64316 89.056004 332.76166 88.927792 332.7832 88.90625 C 333.30022 88.453863 333.81697 88.226562 334.33398 88.226562 C 335.47572 87.924971 336.27222 87.775391 336.72461 87.775391 C 337.0262 87.775391 337.34868 87.818128 337.69336 87.904297 C 338.03803 87.990466 338.39355 88.118678 338.75977 88.291016 C 338.91056 88.161762 338.98633 87.59061 338.98633 86.578125 C 338.98633 86.168823 338.91056 85.81331 338.75977 85.511719 C 338.6736 85.360923 338.63086 85.242419 338.63086 85.15625 C 338.63086 85.070081 338.86787 84.930208 339.3418 84.736328 C 339.62185 84.607075 339.83749 84.509939 339.98828 84.445312 C 340.13908 84.359144 340.24592 84.295038 340.31055 84.251953 C 340.61214 83.821109 340.7967 83.271325 340.86133 82.603516 C 340.9475 81.203271 340.45211 80.084287 339.375 79.244141 C 338.8149 78.813296 338.37196 78.543258 338.04883 78.435547 C 337.94112 78.392462 337.7488 78.349725 337.46875 78.306641 C 337.21024 78.242014 336.86444 78.187616 336.43359 78.144531 C 336.29895 78.122989 336.16151 78.112675 336.02148 78.111328 z M 334.91602 80.310547 C 336.05775 80.310547 337.00383 80.860331 337.75781 81.958984 C 338.03786 82.454456 338.16803 82.874074 338.14648 83.21875 C 338.08186 84.080439 337.43494 84.801172 336.20703 85.382812 C 334.61291 84.865799 333.62214 84.413151 333.23438 84.025391 C 332.56657 83.357582 332.26545 82.79809 332.33008 82.345703 C 332.37316 82.108739 332.51304 81.957205 332.75 81.892578 C 332.79308 81.871036 332.89022 81.839959 333.04102 81.796875 C 333.21335 81.753791 333.42899 81.711053 333.6875 81.667969 C 334.48456 81.517173 334.88281 81.247135 334.88281 80.859375 C 334.88281 80.794748 334.86144 80.718981 334.81836 80.632812 C 334.79682 80.525101 334.78516 80.439627 334.78516 80.375 C 334.78516 80.331916 334.82985 80.310547 334.91602 80.310547 z M 261.08789 111.34766 C 260.90122 111.34766 260.74076 111.36201 260.60742 111.38867 C 260.50076 111.38867 260.38138 111.40107 260.24805 111.42773 C 259.87471 111.58773 259.38091 111.76255 258.76758 111.94922 C 258.15424 112.10922 257.42169 112.29448 256.56836 112.50781 C 255.15503 112.82781 254.08719 113.18789 253.36719 113.58789 C 250.83385 114.97456 249.56836 117.01565 249.56836 119.70898 C 249.56836 122.90898 251.76797 125.24232 256.16797 126.70898 C 257.7413 127.21565 259.03354 127.64161 260.04688 127.98828 C 261.08687 128.30828 261.87487 128.54898 262.4082 128.70898 C 265.26154 129.66898 266.6875 131.33565 266.6875 133.70898 C 266.6875 135.44232 266.08672 136.54734 264.88672 137.02734 C 263.47339 137.61401 262.11526 137.9082 260.80859 137.9082 C 259.20859 137.9082 257.71479 137.70859 256.32812 137.30859 C 253.63479 136.61526 251.96812 135.94859 251.32812 135.30859 C 250.84813 134.85526 250.48805 134.28122 250.24805 133.58789 L 249.44727 131.66797 L 248.72852 133.1875 C 248.22185 134.2275 247.86177 134.78914 247.64844 134.86914 C 247.70177 135.08247 247.83354 135.41581 248.04688 135.86914 C 248.26021 136.29581 248.52766 136.86789 248.84766 137.58789 C 249.08766 138.22789 249.19464 138.93565 249.16797 139.70898 L 251.04688 140.14844 C 250.99354 139.98844 250.99354 139.58922 251.04688 138.94922 L 251.12695 138.02734 C 251.52695 138.45401 251.8068 138.84083 251.9668 139.1875 C 253.3268 139.48083 254.63339 139.69479 255.88672 139.82812 C 257.14005 139.98812 258.32727 140.06836 259.44727 140.06836 C 264.40727 140.06836 267.83518 138.84201 269.72852 136.38867 C 270.66185 135.24201 271.12695 133.94781 271.12695 132.50781 C 271.12695 129.28115 269.42115 127.02805 266.00781 125.74805 C 264.64781 125.24138 263.2075 124.72083 261.6875 124.1875 C 260.1675 123.6275 258.56672 123.04107 256.88672 122.42773 C 254.78005 121.70773 253.72852 120.36201 253.72852 118.38867 C 253.72852 117.16201 254.26146 116.30812 255.32812 115.82812 L 260.08789 113.78906 C 260.62122 113.49573 261.18091 113.34766 261.76758 113.34766 C 263.02091 113.34766 264.64844 114.14805 266.64844 115.74805 C 266.78177 115.88138 266.91354 116.00076 267.04688 116.10742 C 267.20687 116.21409 267.38169 116.33542 267.56836 116.46875 C 267.62169 116.60208 267.67518 116.77495 267.72852 116.98828 C 267.80852 117.20161 267.8744 117.49581 267.92773 117.86914 L 269.84766 119.10742 C 269.90099 118.86742 269.90099 118.49495 269.84766 117.98828 C 269.79432 117.45495 269.71409 116.76154 269.60742 115.9082 L 270.04688 112.30859 C 269.51354 112.14859 269.12672 112.06836 268.88672 112.06836 L 268.56836 112.22852 C 268.16836 112.44185 267.74044 112.54883 267.28711 112.54883 C 267.20711 112.54883 267.06099 112.53448 266.84766 112.50781 C 266.63432 112.48115 266.38122 112.44201 266.08789 112.38867 C 265.95456 112.36201 265.67471 112.30852 265.24805 112.22852 C 264.82138 112.12185 264.26169 111.97573 263.56836 111.78906 C 262.44836 111.49573 261.62122 111.34766 261.08789 111.34766 z M 399.21289 114.66797 L 396.13281 117.06836 C 396.42615 116.53503 396.57227 116.13581 396.57227 115.86914 C 396.57227 115.60247 396.41375 115.46875 396.09375 115.46875 C 396.01375 115.46875 395.85328 115.50789 395.61328 115.58789 C 395.37328 115.66789 395.0256 115.77487 394.57227 115.9082 L 391.77344 116.78906 L 391.77344 118.34766 L 391.65234 119.02734 C 391.67901 119.00068 391.82708 118.98828 392.09375 118.98828 C 392.78708 118.98828 393.23979 119.09526 393.45312 119.30859 C 393.93312 119.89526 394.10599 121.85417 393.97266 125.1875 L 393.57227 132.46875 C 393.51893 133.21542 393.46544 133.84099 393.41211 134.34766 C 393.38544 134.85432 393.3463 135.26789 393.29297 135.58789 C 393.13297 136.57456 392.7194 137.24122 392.05273 137.58789 C 391.5994 137.82789 390.79901 138.0275 389.65234 138.1875 L 389.65234 139.82812 C 391.59901 139.66813 393.31917 139.58789 394.8125 139.58789 C 395.10583 139.58789 395.7725 139.60224 396.8125 139.62891 C 397.8525 139.68224 399.29281 139.77487 401.13281 139.9082 L 401.13281 138.14844 C 399.29281 137.98844 398.29281 137.68185 398.13281 137.22852 C 397.89281 136.58852 397.77344 134.8951 397.77344 132.14844 C 397.77344 130.1751 397.81258 128.34797 397.89258 126.66797 C 397.91924 126.3213 397.93359 126.01471 397.93359 125.74805 L 397.93359 124.98828 C 397.93359 124.61495 397.96034 124.29401 398.01367 124.02734 C 398.14701 121.76068 398.30552 119.85526 398.49219 118.30859 C 398.67885 116.76193 398.91956 115.54797 399.21289 114.66797 z M 411.12695 114.66797 L 408.04688 117.06836 C 408.34021 116.53503 408.48633 116.13581 408.48633 115.86914 C 408.48633 115.60247 408.32781 115.46875 408.00781 115.46875 C 407.92781 115.46875 407.76734 115.50789 407.52734 115.58789 C 407.28734 115.66789 406.93966 115.77487 406.48633 115.9082 L 403.6875 116.78906 L 403.6875 118.34766 L 403.56641 119.02734 C 403.59307 119.00068 403.74115 118.98828 404.00781 118.98828 C 404.70115 118.98828 405.15385 119.09526 405.36719 119.30859 C 405.84719 119.89526 406.02005 121.85417 405.88672 125.1875 L 405.48633 132.46875 C 405.43299 133.21542 405.37951 133.84099 405.32617 134.34766 C 405.29951 134.85432 405.26036 135.26789 405.20703 135.58789 C 405.04703 136.57456 404.63346 137.24122 403.9668 137.58789 C 403.51346 137.82789 402.71307 138.0275 401.56641 138.1875 L 401.56641 139.82812 C 403.51307 139.66813 405.23323 139.58789 406.72656 139.58789 C 407.0199 139.58789 407.68656 139.60224 408.72656 139.62891 C 409.76656 139.68224 411.20688 139.77487 413.04688 139.9082 L 413.04688 138.14844 C 411.20688 137.98844 410.20687 137.68185 410.04688 137.22852 C 409.80688 136.58852 409.6875 134.8951 409.6875 132.14844 C 409.6875 130.1751 409.72664 128.34797 409.80664 126.66797 C 409.83331 126.3213 409.84766 126.01471 409.84766 125.74805 L 409.84766 124.98828 C 409.84766 124.61495 409.8744 124.29401 409.92773 124.02734 C 410.06107 121.76068 410.21958 119.85526 410.40625 118.30859 C 410.59292 116.76193 410.83362 115.54797 411.12695 114.66797 z M 349.74609 115.66797 L 346.66602 118.10742 C 346.82602 117.81409 346.93299 117.57534 346.98633 117.38867 C 347.06633 117.17534 347.10547 117.00247 347.10547 116.86914 C 347.10547 116.65581 346.945 116.54883 346.625 116.54883 C 346.59833 116.54883 346.55919 116.57557 346.50586 116.62891 L 346.42578 116.70898 C 346.07911 116.89565 345.78492 116.96154 345.54492 116.9082 L 344.50586 116.86914 L 344.50586 118.46875 L 344.42578 119.10742 L 344.82617 119.10742 C 344.98617 119.10742 345.06641 119.14852 345.06641 119.22852 C 345.06641 119.25518 344.93268 119.4424 344.66602 119.78906 C 344.45268 120.10906 344.36005 120.30867 344.38672 120.38867 C 344.54672 120.54867 344.66609 120.8944 344.74609 121.42773 L 342.66602 121.42773 C 342.74602 121.64107 342.78516 121.82828 342.78516 121.98828 C 342.78516 122.36161 342.5588 122.84107 342.10547 123.42773 C 341.54547 124.14773 341.25323 124.57565 341.22656 124.70898 L 344.90625 124.70898 L 344.90625 126.22852 L 345.14648 132.46875 C 345.19982 133.26875 345.11958 134.30789 344.90625 135.58789 C 344.74625 136.57456 344.33268 137.24122 343.66602 137.58789 C 343.21268 137.82789 342.41229 138.0275 341.26562 138.1875 L 341.26562 139.82812 C 343.18562 139.66813 344.89339 139.58789 346.38672 139.58789 L 352.30664 139.9082 L 352.30664 138.14844 C 350.46664 137.98844 349.46664 137.68185 349.30664 137.22852 C 349.06664 136.58852 348.94531 134.8951 348.94531 132.14844 L 348.94531 129.22852 C 348.97198 128.29518 348.99872 127.4413 349.02539 126.66797 C 348.89206 125.73464 348.73159 125.18734 348.54492 125.02734 L 348.58594 124.70898 L 352.58594 124.70898 C 352.5326 124.49565 352.50586 124.34758 352.50586 124.26758 C 352.50586 123.81424 352.69307 123.34914 353.06641 122.86914 C 353.35974 122.46914 353.58609 122.1482 353.74609 121.9082 C 353.90609 121.6682 353.99872 121.50773 354.02539 121.42773 L 348.74609 121.42773 C 348.98609 118.8944 349.31943 116.97464 349.74609 115.66797 z M 360.76367 121.82812 C 358.76367 124.14812 356.29661 125.30859 353.36328 125.30859 L 354.4043 127.58789 C 354.43096 127.58789 354.48445 127.54875 354.56445 127.46875 C 354.67112 127.36208 354.76375 127.2551 354.84375 127.14844 L 355.12305 126.86914 C 355.20305 126.76247 355.27089 126.70898 355.32422 126.70898 C 355.93755 126.70898 356.32438 126.8675 356.48438 127.1875 C 356.67104 127.5875 356.76367 128.62859 356.76367 130.30859 C 356.76367 131.40193 356.75128 132.33409 356.72461 133.10742 C 356.72461 133.85409 356.71026 134.45487 356.68359 134.9082 C 356.52359 136.56154 356.17786 137.50805 355.64453 137.74805 C 355.5112 137.82805 355.27049 137.90828 354.92383 137.98828 C 354.60383 138.04161 354.17786 138.1075 353.64453 138.1875 L 353.56445 139.74805 L 362.20312 139.50781 C 363.24312 139.48115 363.97763 139.46875 364.4043 139.46875 L 364.72461 139.46875 L 364.88477 137.58789 L 362.76367 137.58789 L 362.08398 137.66797 C 361.63065 137.69464 361.29732 137.62875 361.08398 137.46875 C 360.71065 136.74875 360.56453 135.17471 360.64453 132.74805 L 360.84375 129.10742 L 360.88477 127.98828 C 360.91143 127.74828 361.11104 127.50758 361.48438 127.26758 C 362.55104 126.46758 363.56344 126.06836 364.52344 126.06836 C 364.57677 126.04169 365.2043 125.53549 366.4043 124.54883 L 366.44336 124.58789 C 365.88336 125.49456 365.4574 126.18797 365.16406 126.66797 C 364.87073 127.14797 364.72461 127.45456 364.72461 127.58789 C 364.93794 127.53456 365.1643 127.46867 365.4043 127.38867 C 365.67096 127.28201 365.9632 127.12154 366.2832 126.9082 C 366.41654 126.77487 366.59135 126.6144 366.80469 126.42773 C 367.04469 126.24107 367.31018 126.01471 367.60352 125.74805 C 367.84352 125.64138 368.21794 125.57549 368.72461 125.54883 C 369.09794 125.49549 369.2832 125.33503 369.2832 125.06836 C 369.2832 124.48169 369.09794 124.00224 368.72461 123.62891 C 368.35128 123.38891 368.01794 123.20169 367.72461 123.06836 C 367.45794 122.90836 367.24398 122.78898 367.08398 122.70898 L 366.60352 122.46875 C 366.39018 122.60208 366.15143 122.7482 365.88477 122.9082 C 365.64477 123.04154 365.37732 123.17526 365.08398 123.30859 L 363.88477 123.86914 C 363.56477 124.00247 363.33646 124.0951 363.20312 124.14844 C 362.72313 124.38844 362.28477 124.6024 361.88477 124.78906 C 361.51143 124.97573 361.1781 125.13424 360.88477 125.26758 C 360.88477 124.17424 360.84367 123.02812 360.76367 121.82812 z M 422.5625 122.06836 C 421.0425 122.06836 419.69482 122.32146 418.52148 122.82812 C 416.01482 123.92146 414.76172 125.40091 414.76172 127.26758 C 414.76172 128.44091 415.3625 129.44091 416.5625 130.26758 C 417.22917 130.74758 418.29505 131.25573 419.76172 131.78906 C 420.56172 132.10906 421.22839 132.38891 421.76172 132.62891 C 422.29505 132.86891 422.72297 133.06852 423.04297 133.22852 C 424.32297 134.00185 424.96289 134.86813 424.96289 135.82812 C 424.96289 136.52146 424.6563 136.98852 424.04297 137.22852 C 423.24297 137.46852 422.45497 137.58789 421.68164 137.58789 C 420.69497 137.58789 419.70932 137.37589 418.72266 136.94922 C 417.49599 136.30922 416.78823 135.9224 416.60156 135.78906 C 416.1749 135.5224 415.96289 135.12122 415.96289 134.58789 C 415.74956 134.77456 415.50885 134.86914 415.24219 134.86914 C 414.73552 134.86914 414.13474 134.48232 413.44141 133.70898 C 413.49474 133.92232 413.60172 134.16107 413.76172 134.42773 C 413.94839 134.66773 414.17474 134.97432 414.44141 135.34766 C 414.78807 135.90766 414.96289 136.32122 414.96289 136.58789 L 415.24219 137.10742 C 415.48219 137.48076 415.60156 137.72146 415.60156 137.82812 C 415.60156 138.28146 415.10776 138.64154 414.12109 138.9082 C 415.69443 139.28154 416.98862 139.54898 418.00195 139.70898 C 419.04195 139.86898 419.84234 139.94922 420.40234 139.94922 C 421.46901 139.94922 422.56164 139.78875 423.68164 139.46875 C 424.82831 139.17542 426.01552 138.69401 427.24219 138.02734 C 428.49552 137.44068 429.12109 136.3213 429.12109 134.66797 C 429.12109 133.2013 428.49552 131.97495 427.24219 130.98828 C 426.44219 130.29495 425.14799 129.61589 423.36133 128.94922 C 422.26799 128.54922 421.38932 128.20154 420.72266 127.9082 C 420.08266 127.5882 419.65474 127.3351 419.44141 127.14844 C 419.14807 126.90844 419.00195 126.5751 419.00195 126.14844 C 419.00195 124.78844 419.88258 124.10742 421.64258 124.10742 C 421.72258 124.10742 422.02917 124.2144 422.5625 124.42773 C 423.1225 124.64107 423.92289 124.94766 424.96289 125.34766 C 425.06956 125.42766 425.21568 125.46875 425.40234 125.46875 C 425.64234 125.46875 425.76172 125.32068 425.76172 125.02734 C 425.76172 124.84068 425.74932 124.69456 425.72266 124.58789 L 428.40234 127.22852 C 427.62901 125.52185 427.24219 124.14742 427.24219 123.10742 L 427.24219 122.74805 C 427.24219 122.64138 427.26893 122.5344 427.32227 122.42773 C 425.00227 122.18773 423.41583 122.06836 422.5625 122.06836 z M 380.00391 122.9082 C 378.48391 122.9082 377.07034 123.12216 375.76367 123.54883 C 373.79034 124.10883 372.20391 125.05534 371.00391 126.38867 C 369.67057 127.85534 369.00391 129.54875 369.00391 131.46875 C 369.00391 133.46875 369.59034 135.09432 370.76367 136.34766 C 372.92367 138.72099 375.92367 139.9082 379.76367 139.9082 C 383.92367 139.9082 386.97716 138.45549 388.92383 135.54883 C 389.80383 134.24216 390.24219 132.80185 390.24219 131.22852 C 390.24219 128.69518 389.12281 126.64169 386.88281 125.06836 C 384.90948 123.62836 382.61724 122.9082 380.00391 122.9082 z M 312.79492 122.94922 C 310.34159 122.94922 308.30049 123.88138 306.67383 125.74805 C 305.15383 127.50805 304.39453 129.61503 304.39453 132.06836 C 304.39453 134.44169 305.15383 136.34906 306.67383 137.78906 C 308.22049 139.2024 310.16701 139.9082 312.51367 139.9082 C 313.92701 139.9082 315.54214 139.50898 317.35547 138.70898 C 319.03547 137.98898 320.42034 137.08161 321.51367 135.98828 L 319.95508 135.66797 C 317.90174 136.8413 316.10135 137.42773 314.55469 137.42773 C 312.31469 137.42773 310.67477 136.80216 309.63477 135.54883 C 309.10143 134.98883 308.82159 134.34891 308.79492 133.62891 L 308.67383 131.1875 L 310.35547 131.42773 C 310.78214 131.48107 311.28833 131.52216 311.875 131.54883 C 312.46167 131.57549 313.12833 131.58789 313.875 131.58789 C 314.96833 131.58789 316.1288 131.54875 317.35547 131.46875 C 318.6088 131.38875 319.95453 131.24068 321.39453 131.02734 L 321.27539 128.66797 C 320.26206 124.85464 317.43492 122.94922 312.79492 122.94922 z M 331.31055 122.94922 C 328.85721 122.94922 326.81612 123.88138 325.18945 125.74805 C 323.66945 127.50805 322.91016 129.61503 322.91016 132.06836 C 322.91016 134.44169 323.66945 136.34906 325.18945 137.78906 C 326.73612 139.2024 328.68263 139.9082 331.0293 139.9082 C 332.44263 139.9082 334.05776 139.50898 335.87109 138.70898 C 337.55109 137.98898 338.93596 137.08161 340.0293 135.98828 L 338.4707 135.66797 C 336.41737 136.8413 334.61698 137.42773 333.07031 137.42773 C 330.83031 137.42773 329.19039 136.80216 328.15039 135.54883 C 327.61706 134.98883 327.33721 134.34891 327.31055 133.62891 L 327.18945 131.1875 L 328.87109 131.42773 C 329.29776 131.48107 329.80396 131.52216 330.39062 131.54883 C 330.97729 131.57549 331.64396 131.58789 332.39062 131.58789 C 333.48396 131.58789 334.64443 131.54875 335.87109 131.46875 C 337.12443 131.38875 338.47016 131.24068 339.91016 131.02734 L 339.79102 128.66797 C 338.77768 124.85464 335.95055 122.94922 331.31055 122.94922 z M 280.71289 123.06836 C 279.93956 123.20169 279.24615 123.30867 278.63281 123.38867 C 278.04615 123.44201 277.53799 123.50789 277.11133 123.58789 C 275.75133 123.61456 274.6587 123.6413 273.83203 123.66797 C 273.03203 123.66797 272.48474 123.69471 272.19141 123.74805 L 272.19141 125.06836 C 273.09807 125.33503 273.7256 125.58813 274.07227 125.82812 C 274.63227 126.20146 275.37917 127.53479 276.3125 129.82812 C 277.2725 132.25479 278.0318 134.36177 278.5918 136.14844 C 279.17846 137.9351 279.55289 139.40216 279.71289 140.54883 L 281.15234 140.46875 C 281.25901 140.41542 281.36599 140.29409 281.47266 140.10742 C 281.60599 139.92076 281.73776 139.6944 281.87109 139.42773 C 283.04443 137.42773 284.09792 135.62734 285.03125 134.02734 C 285.96458 132.42734 286.80607 131.02812 287.55273 129.82812 L 287.91211 130.86914 C 288.15211 131.48247 288.33932 131.90844 288.47266 132.14844 C 289.24599 134.12177 289.87156 135.80083 290.35156 137.1875 C 290.83156 138.57417 291.13815 139.66875 291.27148 140.46875 L 293.19141 140.38867 C 293.56474 139.26867 293.91242 138.32216 294.23242 137.54883 C 294.57909 136.77549 294.92482 136.18906 295.27148 135.78906 L 298.55273 130.50781 C 299.19273 129.41448 299.76482 128.49471 300.27148 127.74805 C 300.80482 126.97471 301.27188 126.36154 301.67188 125.9082 C 302.04521 125.40154 302.6049 125.08255 303.35156 124.94922 C 303.43156 124.60255 303.47266 124.0944 303.47266 123.42773 C 301.79266 123.50773 300.48607 123.54883 299.55273 123.54883 C 298.43273 123.54883 297.23117 123.50773 295.95117 123.42773 L 295.79297 125.02734 C 296.2463 124.89401 296.60443 124.77464 296.87109 124.66797 C 297.16443 124.5613 297.40513 124.44193 297.5918 124.30859 C 297.80513 124.33526 297.91211 124.88255 297.91211 125.94922 C 297.91211 126.96255 296.4718 129.76099 293.5918 134.34766 C 292.5518 131.68099 291.77815 129.64185 291.27148 128.22852 C 290.76482 126.78852 290.51172 125.94898 290.51172 125.70898 C 290.48505 125.73565 290.44591 125.78914 290.39258 125.86914 C 290.36591 125.92247 290.31242 126.0151 290.23242 126.14844 C 289.93909 126.46844 289.6325 126.62891 289.3125 126.62891 L 288.3125 126.06836 C 287.69917 125.72169 287.35148 125.56122 287.27148 125.58789 C 287.21815 125.64122 287.17901 125.66797 287.15234 125.66797 L 287.11133 125.70898 C 286.73799 126.64232 286.15156 127.80083 285.35156 129.1875 C 284.55156 130.57417 283.52482 132.20169 282.27148 134.06836 C 282.05815 133.61503 281.80505 133.04099 281.51172 132.34766 C 281.24505 131.65432 280.93846 130.86828 280.5918 129.98828 C 280.16513 128.89495 279.85854 128.00193 279.67188 127.30859 C 279.48521 126.61526 279.39258 126.08232 279.39258 125.70898 C 279.39258 125.49565 280.11273 125.32083 281.55273 125.1875 L 280.71289 123.06836 z M 378.72266 124.98828 C 379.25599 124.98828 379.73544 125.16115 380.16211 125.50781 C 380.58878 125.82781 381.01669 126.33401 381.44336 127.02734 C 381.95003 127.88068 382.40273 128.56169 382.80273 129.06836 C 383.20273 129.57503 383.58956 129.92076 383.96289 130.10742 C 384.33622 130.32076 384.63042 130.49557 384.84375 130.62891 C 385.05708 130.73557 385.2032 130.81581 385.2832 130.86914 C 385.46987 131.05581 385.60359 131.24107 385.68359 131.42773 C 385.79026 131.6144 385.84375 131.8551 385.84375 132.14844 C 385.84375 133.90844 385.3232 135.32201 384.2832 136.38867 C 383.2432 137.42867 381.81724 137.94922 380.00391 137.94922 C 378.03057 137.94922 376.3887 137.16122 375.08203 135.58789 C 373.9087 134.17456 373.32227 132.42766 373.32227 130.34766 C 373.32227 128.66766 373.81607 127.36107 374.80273 126.42773 C 375.7894 125.46773 377.09599 124.98828 378.72266 124.98828 z M 315.23438 125.47852 C 315.40771 125.47185 315.54143 125.48115 315.63477 125.50781 C 316.67477 126.04115 317.36818 127.2551 317.71484 129.14844 C 317.26151 129.30844 316.20802 129.36193 314.55469 129.30859 C 314.02135 129.25526 313.35469 129.13589 312.55469 128.94922 C 312.02135 128.84255 311.71477 128.74797 311.63477 128.66797 L 308.75391 129.30859 C 309.15391 126.90859 310.56747 125.70898 312.99414 125.70898 C 313.20747 125.70898 313.44818 125.69464 313.71484 125.66797 C 313.98151 125.6413 314.27375 125.60216 314.59375 125.54883 C 314.84708 125.50883 315.06104 125.48518 315.23438 125.47852 z M 333.75 125.47852 C 333.92333 125.47185 334.05706 125.48115 334.15039 125.50781 C 335.19039 126.04115 335.8838 127.2551 336.23047 129.14844 C 335.77714 129.30844 334.72365 129.36193 333.07031 129.30859 C 332.53698 129.25526 331.87031 129.13589 331.07031 128.94922 C 330.53698 128.84255 330.23039 128.74797 330.15039 128.66797 L 327.26953 129.30859 C 327.66953 126.90859 329.0831 125.70898 331.50977 125.70898 C 331.7231 125.70898 331.9638 125.69464 332.23047 125.66797 C 332.49714 125.6413 332.78938 125.60216 333.10938 125.54883 C 333.36271 125.50883 333.57667 125.48518 333.75 125.47852 z "
       transform="scale(0.26458333)"
       id="text6623"
       inkscape:export-xdpi="160"
       inkscape:export-ydpi="160"
       inkscape:export-filename="C:\Users\Semiko\text6623.png" />
  </g>
</svg>
